<mxfile host="Electron" modified="2023-04-07T10:50:53.104Z" agent="Mozilla/5.0 (Macintosh; Intel Mac OS X 10_15_7) AppleWebKit/537.36 (KHTML, like Gecko) draw.io/21.1.2 Chrome/106.0.5249.199 Electron/21.4.3 Safari/537.36" etag="WQCtLmEl2MWENxJkSrmy" version="21.1.2" type="device">
  <diagram name="Seite-1" id="bY61xa4gqMoRgZU2S6cN">
    <mxGraphModel dx="602" dy="475" grid="1" gridSize="10" guides="1" tooltips="1" connect="1" arrows="1" fold="1" page="1" pageScale="1" pageWidth="800" pageHeight="800" math="0" shadow="0">
      <root>
        <mxCell id="0" />
        <mxCell id="1" parent="0" />
        <mxCell id="ccWXI2d3jGWdqzMYQIwA-2" value="" style="rounded=0;whiteSpace=wrap;html=1;fillColor=#99CCFF;" vertex="1" parent="1">
          <mxGeometry x="240" y="120" width="240" height="240" as="geometry" />
        </mxCell>
        <mxCell id="ccWXI2d3jGWdqzMYQIwA-1" value="" style="rounded=1;whiteSpace=wrap;html=1;fillColor=#000000;strokeColor=#ffffff;strokeWidth=14;" vertex="1" parent="1">
          <mxGeometry x="260" y="180" width="200" height="140" as="geometry" />
        </mxCell>
        <mxCell id="ccWXI2d3jGWdqzMYQIwA-3" value="&lt;font style=&quot;font-size: 40px;&quot;&gt;PURISTA&lt;/font&gt;" style="text;html=1;strokeColor=none;fillColor=none;align=center;verticalAlign=middle;whiteSpace=wrap;rounded=0;fontColor=#FFFFFF;fontFamily=Source Code Pro;fontSource=https%3A%2F%2Ffonts.googleapis.com%2Fcss%3Ffamily%3DSource%2BCode%2BPro;fontStyle=1;fontSize=70;" vertex="1" parent="1">
          <mxGeometry x="282.5" y="210" width="155" height="50" as="geometry" />
        </mxCell>
        <mxCell id="ccWXI2d3jGWdqzMYQIwA-7" value="&lt;font style=&quot;font-size: 100px;&quot;&gt;&amp;gt;&lt;/font&gt;" style="text;html=1;strokeColor=none;fillColor=none;align=center;verticalAlign=middle;whiteSpace=wrap;rounded=0;fontColor=#FFFFFF;fontFamily=Source Code Pro;fontSource=https%3A%2F%2Ffonts.googleapis.com%2Fcss%3Ffamily%3DSource%2BCode%2BPro;fontStyle=1;fontSize=70;rotation=90;" vertex="1" parent="1">
          <mxGeometry x="350" y="310" width="155" height="50" as="geometry" />
        </mxCell>
        <mxCell id="ccWXI2d3jGWdqzMYQIwA-9" value="&lt;font style=&quot;font-size: 100px;&quot;&gt;&amp;gt;&lt;/font&gt;" style="text;html=1;strokeColor=none;fillColor=none;align=center;verticalAlign=middle;whiteSpace=wrap;rounded=0;fontColor=#FFFFFF;fontFamily=Source Code Pro;fontSource=https%3A%2F%2Ffonts.googleapis.com%2Fcss%3Ffamily%3DSource%2BCode%2BPro;fontStyle=1;fontSize=70;rotation=90;" vertex="1" parent="1">
          <mxGeometry x="220" y="310" width="155" height="50" as="geometry" />
        </mxCell>
      </root>
    </mxGraphModel>
  </diagram>
</mxfile>
